<svg width="32" height="32" viewBox="0 0 32 32" fill="none" xmlns="http://www.w3.org/2000/svg">
<path fill-rule="evenodd" clip-rule="evenodd" d="M5.07525 7.95384C6.27543 6.75403 7.903 6.08001 9.60005 6.08001C11.2971 6.08001 12.9247 6.75403 14.1248 7.95384L16 9.82744L17.8752 7.95384C18.4656 7.34258 19.1718 6.85501 19.9527 6.5196C20.7335 6.18418 21.5733 6.00763 22.4231 6.00024C23.2729 5.99286 24.1156 6.15479 24.9022 6.47659C25.6887 6.79838 26.4033 7.2736 27.0042 7.87452C27.6051 8.47543 28.0803 9.19 28.4021 9.97654C28.7239 10.7631 28.8858 11.6058 28.8785 12.4556C28.8711 13.3054 28.6945 14.1452 28.3591 14.926C28.0237 15.7069 27.5361 16.4131 26.9248 17.0034L16 27.9298L5.07525 17.0034C3.87543 15.8033 3.20142 14.1757 3.20142 12.4786C3.20142 10.7816 3.87543 9.15402 5.07525 7.95384Z" fill="#F3F3F3"/>
</svg>
